<svg xmlns="http://www.w3.org/2000/svg" width="32" height="32" viewBox="0 0 32 32" fill="none">
  <path d="M15.8125 26.7813L7.30209 18.2708C6.06874 17.0375 6.06874 15.0375 7.30209 13.8042L15.8125 5.29375C17.0458 4.06042 19.0458 4.06042 20.2792 5.29375L28.7896 13.8042C30.0229 15.0375 30.0229 17.0375 28.7896 18.2708L20.2792 26.7813C19.0458 28.0146 17.0458 28.0146 15.8125 26.7813Z" fill="#E67325"/>
  <path d="M3.27085 15.2C4.50418 13.9667 6.50418 13.9667 7.73752 15.2L11.0834 18.5458C12.3167 19.7792 12.3167 21.7792 11.0834 23.0125L7.73752 26.3583C6.50418 27.5917 4.50418 27.5917 3.27085 26.3583L-0.0750813 23.0125C-1.30841 21.7792 -1.30841 19.7792 -0.0750813 18.5458L3.27085 15.2Z" fill="#FCB103"/>
</svg>
